# File created by Blade
# Date/Time:  Tue Apr 07 20:45:22 2015
# Frame Rate: 120.000 fps
#------------------------------------------------------
:FULLY-SPECIFIED
:DEGREES
703
root 2.107857 34.101324 -4.819259 24.280765 -25.010938 -52.885625
Spine 1.952214 26.063134 31.506152
Head 10.914880 2.056228 24.116961
LeftShoulder -21.806079 22.934261 36.737934
LeftArm 90.238352 -79.245063 -63.037348
LeftForeArm 17.819925 -0.000000 18.648522
LeftHand 9.095041 -0.000000 16.481069
LeftHandThumb1 -26.253704 0.000000 33.147579
RightShoulder -10.387075 31.454408 -34.277527
RightArm 66.494099 76.557495 105.593769
RightForeArm 42.388664 -0.000000 58.966740
RightHand 1.497311 -0.000000 28.580509
RightHandThumb1 -24.326973 -0.000000 -32.862282
LeftUpLeg -6.120936 -2.326905 43.310364
LeftLeg 27.099216 -0.000000 -0.000000
LeftFoot -24.042663 18.007749 -27.038687
LeftToeBase -10.302792 -0.000000 0.000000
RightUpLeg -134.302858 -55.917151 18.456074
RightLeg -12.256937 -0.000000 0.000000
RightFoot 38.772520 -25.212066 15.930593
RightToeBase 16.452067 -0.000000 -0.000000
704
root 2.110114 34.081731 -4.840003 24.195997 -25.025565 -52.903080
Spine 2.067157 26.096527 31.492318
Head 10.890935 1.993067 24.293789
LeftShoulder -21.806629 22.948433 36.709372
LeftArm 91.359767 -79.236836 -64.071306
LeftForeArm 17.938114 0.000000 18.904048
LeftHand 9.041421 0.000000 16.637651
LeftHandThumb1 -26.253704 0.000000 33.147579
RightShoulder -10.438878 31.539758 -34.282045
RightArm 65.911238 76.596075 104.992346
RightForeArm 42.517099 -0.000000 58.936775
RightHand 1.525103 -0.000000 28.610038
RightHandThumb1 -24.326973 -0.000000 -32.862282
LeftUpLeg -6.228859 -2.011091 43.403204
LeftLeg 27.422702 -0.000000 -0.000000
LeftFoot -24.093682 17.526275 -27.174400
LeftToeBase -10.371962 -0.000000 0.000000
RightUpLeg -134.206066 -55.886919 18.363658
RightLeg -12.255384 -0.000000 0.000000
RightFoot 38.783171 -25.247566 16.117885
RightToeBase 16.313279 -0.000000 -0.000000
705
root 2.111598 34.064814 -4.859928 24.096331 -25.030863 -52.905967
Spine 2.191206 26.105714 31.475961
Head 10.849452 1.921830 24.415036
LeftShoulder -21.838995 22.910239 36.678597
LeftArm 92.311416 -79.172713 -64.956914
LeftForeArm 18.090723 0.000000 19.194970
LeftHand 9.003791 -0.000000 16.636437
LeftHandThumb1 -26.253704 0.000000 33.147579
RightShoulder -10.522821 31.535670 -34.307659
RightArm 65.601834 76.566648 104.677622
RightForeArm 42.691847 -0.000000 58.889020
RightHand 1.554148 0.000000 28.600301
RightHandThumb1 -24.326973 -0.000000 -32.862282
LeftUpLeg -6.316601 -1.669705 43.491648
LeftLeg 27.691965 -0.000000 -0.000000
LeftFoot -23.970786 17.041225 -27.097746
LeftToeBase -10.805155 -0.000000 0.000000
RightUpLeg -134.190038 -55.820908 18.337304
RightLeg -12.224490 -0.000000 0.000000
RightFoot 38.689709 -25.256161 16.327841
RightToeBase 16.406559 -0.000000 -0.000000
706
root 2.112185 34.051760 -4.878612 23.984973 -25.017294 -52.865792
Spine 2.284156 26.072713 31.421120
Head 10.825976 1.873815 24.513271
LeftShoulder -21.886945 22.935750 36.610285
LeftArm 93.343930 -79.133741 -65.947411
LeftForeArm 18.185064 -0.000000 19.521289
LeftHand 9.020873 0.000000 16.721134
LeftHandThumb1 -26.253704 0.000000 33.147579
RightShoulder -10.558392 31.492914 -34.312245
RightArm 65.654229 76.554988 104.725027
RightForeArm 42.735721 -0.000000 58.906575
RightHand 1.547604 -0.000000 28.811923
RightHandThumb1 -24.326973 -0.000000 -32.862282
LeftUpLeg -6.402330 -1.409165 43.556384
LeftLeg 27.918186 -0.000000 -0.000000
LeftFoot -23.925176 16.469864 -27.278754
LeftToeBase -10.840564 -0.000000 0.000000
RightUpLeg -134.238000 -55.764272 18.341427
RightLeg -12.207158 -0.000000 0.000000
RightFoot 38.667028 -25.177625 16.380735
RightToeBase 16.393933 -0.000000 -0.000000
707
root 2.112581 34.043579 -4.896347 23.872797 -24.995912 -52.822301
Spine 2.374995 26.070749 31.369981
Head 10.771065 1.825816 24.593984
LeftShoulder -21.914566 22.976659 36.536900
LeftArm 93.942548 -79.120805 -66.540348
LeftForeArm 18.242902 0.000000 19.893869
LeftHand 9.088528 -0.000000 16.777906
LeftHandThumb1 -26.253704 0.000000 33.147579
RightShoulder -10.605886 31.409581 -34.327839
RightArm 65.938487 76.578229 104.979787
RightForeArm 42.820682 -0.000000 58.945268
RightHand 1.481883 -0.000000 28.634458
RightHandThumb1 -24.326973 -0.000000 -32.862282
LeftUpLeg -6.463159 -1.167887 43.615658
LeftLeg 28.075771 -0.000000 -0.000000
LeftFoot -23.844340 15.972160 -27.401264
LeftToeBase -10.756668 -0.000000 0.000000
RightUpLeg -134.258818 -55.743140 18.327489
RightLeg -12.237836 -0.000000 0.000000
RightFoot 38.606793 -25.171891 16.541581
RightToeBase 16.477773 -0.000000 -0.000000
708
root 2.113193 34.041027 -4.912812 23.711884 -24.942558 -52.759740
Spine 2.499909 25.992840 31.335641
Head 10.730360 1.798832 24.644851
LeftShoulder -22.004684 23.080130 36.431024
LeftArm 94.864275 -79.075656 -67.522165
LeftForeArm 18.319575 -0.000000 20.329272
LeftHand 9.097162 -0.000000 16.873833
LeftHandThumb1 -26.253704 0.000000 33.147579
RightShoulder -10.636393 31.481941 -34.364913
RightArm 65.667273 76.649768 104.678756
RightForeArm 42.915731 -0.000000 58.989140
RightHand 1.434152 -0.000000 28.615598
RightHandThumb1 -24.326973 -0.000000 -32.862282
LeftUpLeg -6.501886 -1.043492 43.677186
LeftLeg 28.208320 -0.000000 -0.000000
LeftFoot -23.626762 15.409494 -27.536535
LeftToeBase -11.128965 -0.000000 0.000000
RightUpLeg -134.286780 -55.756862 18.327951
RightLeg -12.255535 -0.000000 0.000000
RightFoot 38.555947 -25.112814 16.735348
RightToeBase 16.614937 -0.000000 -0.000000
709
root 2.112307 34.045100 -4.929617 23.539266 -24.898506 -52.668723
Spine 2.626092 25.923053 31.264270
Head 10.680581 1.774242 24.697368
LeftShoulder -22.080633 23.182041 36.333723
LeftArm 95.471058 -79.045848 -68.208391
LeftForeArm 18.515258 -0.000000 20.733939
LeftHand 9.157858 0.000000 16.984109
LeftHandThumb1 -26.253704 0.000000 33.147579
RightShoulder -10.669036 31.473646 -34.383558
RightArm 65.761870 76.700344 104.741406
RightForeArm 42.953440 -0.000000 59.055532
RightHand 1.453279 -0.000000 28.656063
RightHandThumb1 -24.326973 -0.000000 -32.862282
LeftUpLeg -6.532260 -0.854123 43.742376
LeftLeg 28.324697 -0.000000 -0.000000
LeftFoot -23.277705 14.715045 -27.635417
LeftToeBase -11.246738 -0.000000 0.000000
RightUpLeg -134.390921 -55.705046 18.374308
RightLeg -12.259545 -0.000000 0.000000
RightFoot 38.576192 -24.975220 16.702081
RightToeBase 16.555276 -0.000000 -0.000000
710
root 2.112619 34.054453 -4.944452 23.317514 -24.838031 -52.565805
Spine 2.798023 25.832145 31.217932
Head 10.616590 1.698227 24.712561
LeftShoulder -22.126269 23.234514 36.293231
LeftArm 95.271442 -79.003263 -68.176749
LeftForeArm 18.603332 -0.000000 21.138644
LeftHand 9.261417 -0.000000 17.253711
LeftHandThumb1 -26.253704 0.000000 33.147579
RightShoulder -10.732198 31.402466 -34.429276
RightArm 66.161824 76.722177 105.120108
RightForeArm 43.028724 -0.000000 59.067552
RightHand 1.503254 -0.000000 28.716723
RightHandThumb1 -24.326973 -0.000000 -32.862282
LeftUpLeg -6.553727 -0.734416 43.767505
LeftLeg 28.417027 -0.000000 -0.000000
LeftFoot -22.861041 14.341885 -27.527140
LeftToeBase -11.445305 -0.000000 0.000000
RightUpLeg -134.480210 -55.659145 18.425231
RightLeg -12.260102 -0.000000 0.000000
RightFoot 38.576075 -24.874926 16.702285
RightToeBase 16.736204 -0.000000 -0.000000
711
root 2.112416 34.070468 -4.961005 23.051102 -24.739001 -52.439554
Spine 2.998805 25.707758 31.183201
Head 10.549761 1.575490 24.673173
LeftShoulder -22.143929 23.299987 36.220544
LeftArm 94.570745 -79.032114 -67.591962
LeftForeArm 18.684062 -0.000000 21.395075
LeftHand 9.365609 -0.000000 17.587052
LeftHandThumb1 -26.253704 0.000000 33.147579
RightShoulder -10.839196 31.454025 -34.522623
RightArm 66.114206 76.751078 105.080360
RightForeArm 43.259998 0.000000 59.103733
RightHand 1.462503 -0.000000 28.700223
RightHandThumb1 -24.326973 -0.000000 -32.862282
LeftUpLeg -6.613611 -0.834577 43.819401
LeftLeg 28.588632 -0.000000 -0.000000
LeftFoot -22.432139 13.867927 -27.604526
LeftToeBase -11.274637 -0.000000 0.000000
RightUpLeg -134.611171 -55.615016 18.521202
RightLeg -12.227138 -0.000000 0.000000
RightFoot 38.467767 -24.833219 16.856148
RightToeBase 16.553051 -0.000000 -0.000000
712
root 2.110792 34.092914 -4.980141 22.738970 -24.660620 -52.289363
Spine 3.250108 25.552966 31.107832
Head 10.480493 1.465863 24.702844
LeftShoulder -22.183858 23.304814 36.190209
LeftArm 93.322361 -79.031255 -66.432021
LeftForeArm 18.788636 -0.000000 21.490993
LeftHand 9.625011 0.000000 17.875886
LeftHandThumb1 -26.253704 0.000000 33.147579
RightShoulder -10.906524 31.504959 -34.568180
RightArm 66.201343 76.788877 105.170658
RightForeArm 43.568138 -0.000000 59.101928
RightHand 1.446678 -0.000000 28.829660
RightHandThumb1 -24.326973 -0.000000 -32.862282
LeftUpLeg -6.669852 -0.917693 43.880679
LeftLeg 28.821307 -0.000000 -0.000000
LeftFoot -21.921275 13.085346 -27.982811
LeftToeBase -11.363289 -0.000000 0.000000
RightUpLeg -134.693439 -55.527207 18.563531
RightLeg -12.206704 -0.000000 0.000000
RightFoot 38.351190 -24.769858 16.840510
RightToeBase 16.982054 -0.000000 -0.000000
713
root 2.109178 34.120105 -5.004864 22.421742 -24.558516 -52.104310
Spine 3.490172 25.348540 30.985526
Head 10.392683 1.410005 24.748374
LeftShoulder -22.274072 23.375560 36.132844
LeftArm 92.185841 -79.052425 -65.364392
LeftForeArm 18.861148 0.000000 21.465453
LeftHand 9.763164 -0.000000 18.163022
LeftHandThumb1 -26.253704 0.000000 33.147579
RightShoulder -10.928009 31.516185 -34.578314
RightArm 66.692418 76.825452 105.681452
RightForeArm 43.888895 0.000000 59.088013
RightHand 1.451400 -0.000000 28.865416
RightHandThumb1 -24.326973 -0.000000 -32.862282
LeftUpLeg -6.827135 -1.250545 43.982552
LeftLeg 29.232133 -0.000000 -0.000000
LeftFoot -21.375323 11.866760 -28.986362
LeftToeBase -11.383890 -0.000000 0.000000
RightUpLeg -134.818746 -55.433492 18.629536
RightLeg -12.197218 -0.000000 0.000000
RightFoot 38.352936 -24.725195 16.772249
RightToeBase 16.782904 -0.000000 -0.000000
714
root 2.107420 34.151367 -5.029945 22.060149 -24.444749 -51.894067
Spine 3.759445 25.133187 30.850160
Head 10.288325 1.332569 24.815469
LeftShoulder -22.349010 23.432265 36.087112
LeftArm 91.126932 -79.055461 -64.345690
LeftForeArm 18.922973 0.000000 21.301336
LeftHand 9.929414 0.000000 18.540067
LeftHandThumb1 -26.253704 0.000000 33.147579
RightShoulder -10.948501 31.543202 -34.588207
RightArm 67.033217 76.880119 106.056031
RightForeArm 44.299787 -0.000000 59.083035
RightHand 1.349169 -0.000000 29.601670
RightHandThumb1 -24.326973 -0.000000 -32.862282
LeftUpLeg -6.976045 -1.336860 44.077465
LeftLeg 29.601661 -0.000000 -0.000000
LeftFoot -20.632432 10.644083 -29.739801
LeftToeBase -11.649625 -0.000000 0.000000
RightUpLeg -134.935106 -55.324914 18.708405
RightLeg -12.225349 -0.000000 0.000000
RightFoot 38.149751 -24.909881 17.039467
RightToeBase 17.624477 -0.000000 -0.000000
715
root 2.105770 34.184461 -5.060013 21.706386 -24.369865 -51.616184
Spine 4.002918 24.993327 30.600718
Head 10.164852 1.205829 24.932558
LeftShoulder -22.396756 23.443014 36.082929
LeftArm 90.285480 -79.035553 -63.552280
LeftForeArm 18.946133 0.000000 21.077995
LeftHand 10.127303 -0.000000 18.840017
LeftHandThumb1 -26.253704 0.000000 33.147579
RightShoulder -11.015708 31.646620 -34.615766
RightArm 67.079286 76.975427 106.183601
RightForeArm 44.562974 -0.000000 59.073310
RightHand 1.335467 -0.000000 29.591779
RightHandThumb1 -24.326973 -0.000000 -32.862282
LeftUpLeg -7.164042 -1.342363 44.145120
LeftLeg 30.005756 -0.000000 -0.000000
LeftFoot -19.804313 9.285607 -30.385975
LeftToeBase -11.468055 -0.000000 0.000000
RightUpLeg -135.081495 -55.169760 18.710004
RightLeg -12.201566 -0.000000 0.000000
RightFoot 38.122208 -24.887010 17.056555
RightToeBase 17.514286 -0.000000 -0.000000
